<?xml version="1.0" standalone="no"?>
<!DOCTYPE svg PUBLIC "-//W3C//DTD SVG 20010904//EN"
 "http://www.w3.org/TR/2001/REC-SVG-20010904/DTD/svg10.dtd">
<svg version="1.0" xmlns="http://www.w3.org/2000/svg"
 width="1024.000000pt" height="1024.000000pt" viewBox="0 0 1024.000000 1024.000000"
 preserveAspectRatio="xMidYMid meet">

<g transform="translate(0.000000,1024.000000) scale(0.100000,-0.100000)"
fill="#000000" stroke="none">
<path d="M5730 8470 c-316 -33 -563 -85 -850 -180 -221 -73 -339 -122 -515
-214 -252 -133 -380 -216 -585 -380 -145 -116 -240 -204 -240 -221 0 -7 7 -18
15 -25 16 -14 15 -14 195 111 41 29 129 86 195 127 66 41 147 92 180 114 100
64 471 244 626 302 629 238 1161 281 1774 145 342 -76 694 -208 695 -261 0 -4
-35 -34 -77 -67 -43 -33 -127 -99 -188 -146 -60 -47 -168 -131 -240 -185 -71
-55 -173 -133 -225 -175 -150 -118 -327 -253 -348 -264 -14 -7 -31 -4 -70 14
-141 65 -373 133 -593 172 -143 26 -172 28 -419 27 -244 0 -277 -2 -415 -27
-338 -62 -614 -158 -875 -304 -337 -189 -556 -388 -712 -644 -119 -195 -175
-379 -185 -604 -11 -255 26 -433 132 -647 81 -163 172 -285 311 -418 320 -305
714 -471 1324 -557 162 -23 219 -26 455 -27 228 0 294 3 425 22 207 30 397 77
495 122 237 109 768 550 916 760 58 82 92 148 85 166 -12 31 -56 10 -189 -89
-153 -113 -254 -187 -462 -336 -77 -56 -165 -121 -196 -145 -62 -49 -158 -101
-228 -122 -48 -15 -254 -55 -376 -73 -381 -56 -854 -46 -1186 25 -324 69 -529
149 -751 295 -247 163 -453 417 -527 650 -24 77 -51 253 -51 337 0 79 33 260
63 347 157 452 656 860 1278 1044 149 44 270 64 287 47 17 -17 -1 -32 -83 -67
-140 -59 -384 -228 -487 -336 -75 -80 -151 -198 -180 -281 -34 -99 -33 -258 4
-359 124 -346 515 -572 1196 -693 114 -20 394 -40 572 -40 511 0 959 83 1375
254 260 108 574 326 741 515 213 241 310 437 333 673 29 297 -63 567 -297 862
-369 468 -1042 748 -1832 761 -113 2 -243 0 -290 -5z"/>
<path d="M1110 3805 c-283 -31 -556 -150 -715 -311 -166 -169 -284 -459 -272
-669 10 -164 84 -332 197 -441 227 -220 774 -313 1236 -209 18 4 25 20 43 102
12 54 31 134 41 178 10 44 17 81 15 83 -2 2 -34 -6 -72 -17 -112 -33 -179 -41
-329 -41 -122 0 -154 3 -230 26 -191 55 -297 171 -325 355 -20 137 21 281 114
404 71 94 198 175 337 216 71 21 484 18 574 -4 38 -10 70 -16 72 -14 5 5 94
266 94 276 0 16 -178 52 -325 66 -167 17 -300 17 -455 0z"/>
<path d="M9470 3628 c-162 -7 -293 -38 -431 -101 -211 -96 -366 -269 -440
-487 -56 -167 -51 -377 12 -503 73 -146 237 -273 410 -318 187 -48 206 -50
449 -46 240 4 238 4 401 53 17 5 22 26 89 364 17 85 42 205 56 267 13 62 24
120 24 130 0 17 -17 18 -282 15 -174 -2 -285 -8 -289 -14 -13 -20 -51 -208
-45 -223 4 -12 26 -15 111 -15 58 0 105 -1 105 -3 0 -4 -40 -202 -48 -237 l-8
-35 -72 -3 c-267 -11 -436 103 -474 318 -32 187 77 402 251 494 147 77 373
100 594 62 54 -10 104 -15 112 -13 7 3 29 54 50 114 20 59 39 113 41 119 3 6
-10 14 -28 17 -18 3 -76 15 -128 26 -109 23 -253 29 -460 19z"/>
<path d="M6895 3588 c-2 -7 -8 -35 -14 -63 -5 -27 -23 -117 -41 -200 -17 -82
-42 -199 -55 -260 -40 -192 -73 -346 -105 -490 -51 -231 -80 -369 -80 -377 0
-4 80 -8 179 -8 l178 0 12 43 c6 23 24 105 41 182 17 77 41 190 54 250 35 157
72 334 95 455 34 172 37 177 44 80 3 -47 16 -287 28 -535 11 -247 23 -456 25
-463 3 -10 46 -12 191 -10 l187 3 114 240 c175 370 339 707 367 756 24 41 26
42 21 14 -5 -38 -43 -217 -56 -270 -6 -22 -19 -83 -30 -135 -10 -52 -42 -202
-69 -333 -28 -132 -51 -247 -51 -258 0 -18 9 -19 174 -19 127 0 176 3 183 13
6 6 13 32 17 56 4 25 17 90 30 145 13 56 36 160 51 231 26 126 46 218 100 470
14 66 35 158 45 205 11 47 26 119 34 160 8 41 17 87 21 103 l7 27 -310 0
c-236 0 -312 -3 -319 -12 -5 -7 -69 -143 -140 -303 -72 -159 -153 -337 -181
-395 -27 -58 -57 -127 -67 -155 -10 -27 -24 -56 -30 -63 -12 -13 -14 21 -34
688 -3 118 -10 221 -14 228 -6 9 -78 12 -303 12 -227 0 -296 -3 -299 -12z"/>
<path d="M1971 3443 c-5 -21 -17 -74 -26 -118 -8 -44 -24 -116 -35 -160 -10
-44 -37 -170 -60 -280 -23 -110 -52 -249 -65 -310 -62 -295 -75 -359 -75 -371
0 -12 82 -14 485 -14 l485 0 5 23 c8 33 35 198 35 211 0 8 -81 10 -290 8 -249
-3 -291 -2 -296 11 -4 12 40 225 62 295 2 9 66 12 273 12 177 0 272 4 276 10
8 13 45 187 45 212 0 16 -21 18 -267 20 l-268 3 3 30 c1 17 13 71 25 120 l22
90 289 5 289 5 23 95 c13 52 23 105 24 118 l0 22 -475 0 -474 0 -10 -37z"/>
<path d="M3070 3473 c0 -13 -71 -350 -134 -638 -92 -421 -134 -629 -129 -637
2 -5 89 -8 193 -8 l188 0 12 53 c6 28 29 133 50 232 22 99 43 194 48 210 l8
30 255 3 255 2 26 113 c14 61 24 115 21 120 -2 4 -116 7 -254 7 -229 0 -249 1
-249 17 0 14 13 84 46 241 l4 22 270 0 c247 0 269 1 274 18 9 34 34 148 41
185 l6 37 -466 0 c-256 0 -465 -3 -465 -7z"/>
<path d="M4136 3472 c-4 -7 -47 -204 -86 -397 -10 -49 -35 -164 -55 -255 -20
-91 -47 -217 -61 -280 -50 -227 -71 -335 -67 -342 2 -5 222 -8 488 -8 l483 0
17 98 c9 53 18 108 20 122 l4 25 -290 -3 c-235 -3 -290 -1 -294 10 -3 7 10 78
28 158 l32 145 270 3 c148 1 273 6 277 10 11 11 50 211 43 222 -4 6 -112 10
-271 10 -236 0 -264 2 -264 16 0 9 9 55 20 103 11 47 23 96 25 109 l5 22 290
0 289 0 10 38 c10 38 41 187 41 197 0 8 -948 6 -954 -3z"/>
<path d="M5192 3372 c-12 -60 -22 -116 -22 -125 0 -15 16 -17 155 -17 85 0
155 -3 155 -6 0 -3 -12 -60 -26 -127 -14 -67 -32 -151 -39 -187 -7 -36 -29
-141 -50 -235 -20 -93 -45 -210 -55 -260 -10 -49 -25 -118 -33 -152 -8 -34
-12 -64 -9 -67 3 -3 92 -6 198 -6 220 0 193 -12 213 95 5 28 21 106 36 175 34
159 76 360 109 519 14 68 30 140 35 160 5 20 12 48 15 64 l6 27 155 0 c138 0
154 2 159 18 15 51 46 193 46 211 l0 21 -513 0 -514 0 -21 -108z"/>
<path d="M6129 2863 c-12 -32 -39 -165 -39 -194 0 -18 9 -19 180 -19 l179 0
10 38 c33 123 43 173 37 187 -4 13 -33 15 -181 15 l-175 0 -11 -27z"/>
</g>
</svg>
